<svg width="80" height="70" viewBox="0 0 80 70" fill="none" xmlns="http://www.w3.org/2000/svg">
<path d="M11 2.00017V24.9518H15.9642V7.17579H64.0326V24.9518H69V2.00017L11.0018 2H11V2.00017ZM21.7597 12.6557V24.9585H26.7221V17.7509H32.289V54.2032H23.6019V59.2464H37.2548V12.6557H21.7597V12.6557ZM42.7452 12.6557V59.248H56.398V54.2032H47.7109V17.7542H53.2762V24.9593H58.2402V12.6557H42.7452ZM23.6019 64.9551V70H56.3619V64.9551H23.6019Z" fill="white"/>
<path d="M0 0H80V20H0V0Z" fill="#F8F026"/>
<path d="M0 25H80V45H0V25Z" fill="#F8F026"/>
<path d="M0 50H80V70H0V50Z" fill="#F8F026"/>
</svg>
