<svg width="110" height="105" viewBox="0 0 110 105" fill="none" xmlns="http://www.w3.org/2000/svg">
<rect width="110" height="105" rx="11" fill="#1E1D1F"/>
<path d="M21 12.0002V39.3792H26.9041V18.1742H84.0741V39.3792H89.9821V12.0002L21.0021 12H21V12.0002ZM33.797 24.7112V39.3872H39.699V30.7892H46.32V74.2732H35.988V80.2892H52.226V24.7112H33.797V24.7112ZM58.756 24.7112V80.2912H74.994V74.2732H64.662V30.7932H71.281V39.3882H77.185V24.7112H58.756ZM35.988 87.0992V93.1172H74.951V87.0992H35.988Z" fill="white"/>
<path d="M15 20H95V40H15V20Z" fill="#F8F026"/>
<path d="M15 45H95V65H15V45Z" fill="#F8F026"/>
<path d="M15 70H95V90H15V70Z" fill="#F8F026"/>
</svg>
