<svg width="110" height="105" viewBox="0 0 110 105" fill="none" xmlns="http://www.w3.org/2000/svg">
<rect width="110" height="105" rx="11" fill="#1E1D1F"/>
<path d="M26 22.0002V44.9518H30.9642V27.1758H79.0326V44.9518H84V22.0002L26.0018 22H26V22.0002ZM36.7597 32.6557V44.9585H41.7221V37.7509H47.289V74.2032H38.6019V79.2464H52.2548V32.6557H36.7597V32.6557ZM57.7452 32.6557V79.248H71.398V74.2032H62.7109V37.7542H68.2762V44.9593H73.2402V32.6557H57.7452ZM38.6019 84.9551V90H71.3619V84.9551H38.6019Z" fill="white"/>
<path d="M15 20H95V40H15V20Z" fill="#F8F026"/>
<path d="M15 45H95V65H15V45Z" fill="#F8F026"/>
<path d="M15 70H95V90H15V70Z" fill="#F8F026"/>
</svg>
